# xmcd
#
# Track frame offsets:
#	150
#	22485
#	43820
#	64841
#	82957
#	106822
#	123180
#	143608
#	166847
#	183188
#	205201
#	220589
#	237625
#	252898
#	273278
#	287786
#	315151
#
# Disc length: 4560 seconds
#
# Revision: 1
# Processed by: cddbd v1.5.1PL0 Copyright (c) Steve Scherf et al.
# Submitted via: audiograbber 1.83.01
#
DISCID=ed11ce11
DTITLE=Ibrahim Tatlises - Aramam
DYEAR=2004
DGENRE=Fantazi
TTITLE0=Aramam
TTITLE1=Ben De Insanim
TTITLE2=Rojin
TTITLE3=Kavur Baliklari
TTITLE4=Neden Saclarin Beyazlamis
TTITLE5=Tamam Askim
TTITLE6=Kiz Ben Seni Vurmazmiyim
TTITLE7=Kal Benim Icin
TTITLE8=Beyaz Mendil
TTITLE9=Leylim Ley
TTITLE10=Barismam
TTITLE11=Dedi Ki Nisanliyam
TTITLE12=Tak Beni Takmam Seni
TTITLE13=Rindamin
TTITLE14=Yaz Geldi
TTITLE15=Aramam (Dance Remix)
TTITLE16=Neden Saclarin Beyazlamis (Dance Remix)
EXTD=
EXTT0=
EXTT1=
EXTT2=
EXTT3=
EXTT4=
EXTT5=
EXTT6=
EXTT7=
EXTT8=
EXTT9=
EXTT10=
EXTT11=
EXTT12=
EXTT13=
EXTT14=
EXTT15=
EXTT16=
PLAYORDER=
